  0
SECTION
  2
HEADER
  9
$ANGBASE
  50
0.0
  9
$ANGDIR
  70
1
  9
$MEASUREMENT
  70
0
  0
ENDSEC
  0
SECTION
  2
TABLES
  0
TABLE
  2
LTYPE
  70
4
  0
LTYPE
  5
40F
  2
CONTINUOUS
  70
0
  3
Solid line
  72
65
  73
0
  40
0.0
  0
LTYPE
  5
410
  2
DASHDOT
 70
0
  3
Dash Dot ____ _ ____ _
 72
65
 73
4
 40
2.0
 49
1.25
 49
-0.25
 49
0.25
 49
-0.25
  0
LTYPE
  5
411
  2
DASHED
 70
0
  3
Dashed __ __ __ __ __
 72
65
 73
2
 40
0.75
 49
0.5
 49
-0.25
  0
LTYPE
  5
43B
  2
DOTTED
 70
0
  3
Dotted .  .  .  .
 72
65
 73
2
 40
0.2
 49
0.0
 49
-0.2
  0
ENDTAB
  0
TABLE
  2
STYLE
  70
4
  0
STYLE
  2
KICAD
  70
0
  40
0
  41
1
  42
1
  50
0
  71
0
  3
isocp.shx
  0
STYLE
  2
KICADB
  70
0
  40
0
  41
1
  42
1
  50
0
  71
0
  3
isocp.shx
  0
STYLE
  2
KICADI
  70
0
  40
0
  41
1
  42
1
  50
15
  71
0
  3
isocp.shx
  0
STYLE
  2
KICADBI
  70
0
  40
0
  41
1
  42
1
  50
15
  71
0
  3
isocp.shx
  0
ENDTAB
  0
TABLE
  2
LAYER
  70
1
  0
LAYER
  2
BLACK
  70
0
  62
7
  6
CONTINUOUS
  0
ENDTAB
  0
ENDSEC
  0
SECTION
  2
ENTITIES
0
LINE
8
BLACK
6
CONTINUOUS
10
4.2244094488188972
20
-1.7145669291338583
11
4.2358703937007869
21
-1.7152105511811022
0
LINE
8
BLACK
6
CONTINUOUS
10
4.2358703937007869
20
-1.7152105511811022
11
4.2471871653543305
21
-1.7171333464566929
0
LINE
8
BLACK
6
CONTINUOUS
10
4.2471871653543305
20
-1.7171333464566929
11
4.2582175590551179
21
-1.7203111417322834
0
LINE
8
BLACK
6
CONTINUOUS
10
4.2582175590551179
20
-1.7203111417322834
11
4.2688227559055116
21
-1.7247039763779528
0
LINE
8
BLACK
6
CONTINUOUS
10
4.2688227559055116
20
-1.7247039763779528
11
4.2788694094488191
21
-1.7302565748031495
0
LINE
8
BLACK
6
CONTINUOUS
10
4.2788694094488191
20
-1.7302565748031495
11
4.2882312204724409
21
-1.7368991338582678
0
LINE
8
BLACK
6
CONTINUOUS
10
4.2882312204724409
20
-1.7368991338582678
11
4.2967904724409447
21
-1.7445481102362204
0
LINE
8
BLACK
6
CONTINUOUS
10
4.2967904724409447
20
-1.7445481102362204
11
4.304439448818898
21
-1.7531073622047244
0
LINE
8
BLACK
6
CONTINUOUS
10
4.304439448818898
20
-1.7531073622047244
11
4.311082007874016
21
-1.7624691732283464
0
LINE
8
BLACK
6
CONTINUOUS
10
4.311082007874016
20
-1.7624691732283464
11
4.3166346062992123
21
-1.7725158267716534
0
LINE
8
BLACK
6
CONTINUOUS
10
4.3166346062992123
20
-1.7725158267716534
11
4.3210274409448814
21
-1.7831210236220472
0
LINE
8
BLACK
6
CONTINUOUS
10
4.3210274409448814
20
-1.7831210236220472
11
4.3242052362204726
21
-1.7941514173228346
0
LINE
8
BLACK
6
CONTINUOUS
10
4.3242052362204726
20
-1.7941514173228346
11
4.3261280314960633
21
-1.805468188976378
0
LINE
8
BLACK
6
CONTINUOUS
10
4.3261280314960633
20
-1.805468188976378
11
4.3267716535433074
21
-1.8169291338582676
0
LINE
8
BLACK
6
CONTINUOUS
10
4.3267716535433074
20
-1.8169291338582676
11
4.3267716535433074
21
-5.3031496062992121
0
LINE
8
BLACK
6
CONTINUOUS
10
4.3267716535433074
20
-5.3031496062992121
11
4.3261280314960633
21
-5.3146105511811026
0
LINE
8
BLACK
6
CONTINUOUS
10
4.3261280314960633
20
-5.3146105511811026
11
4.3242052362204726
21
-5.3259273228346453
0
LINE
8
BLACK
6
CONTINUOUS
10
4.3242052362204726
20
-5.3259273228346453
11
4.3210274409448814
21
-5.3369577165354327
0
LINE
8
BLACK
6
CONTINUOUS
10
4.3210274409448814
20
-5.3369577165354327
11
4.3166346062992123
21
-5.3475629133858265
0
LINE
8
BLACK
6
CONTINUOUS
10
4.3166346062992123
20
-5.3475629133858265
11
4.311082007874016
21
-5.3576095669291339
0
LINE
8
BLACK
6
CONTINUOUS
10
4.311082007874016
20
-5.3576095669291339
11
4.304439448818898
21
-5.3669713779527557
0
LINE
8
BLACK
6
CONTINUOUS
10
4.304439448818898
20
-5.3669713779527557
11
4.2967904724409447
21
-5.3755306299212595
0
LINE
8
BLACK
6
CONTINUOUS
10
4.2967904724409447
20
-5.3755306299212595
11
4.2882312204724409
21
-5.3831796062992128
0
LINE
8
BLACK
6
CONTINUOUS
10
4.2882312204724409
20
-5.3831796062992128
11
4.2788694094488191
21
-5.3898221653543308
0
LINE
8
BLACK
6
CONTINUOUS
10
4.2788694094488191
20
-5.3898221653543308
11
4.2688227559055116
21
-5.3953747637795271
0
LINE
8
BLACK
6
CONTINUOUS
10
4.2688227559055116
20
-5.3953747637795271
11
4.2582175590551179
21
-5.3997675984251972
0
LINE
8
BLACK
6
CONTINUOUS
10
4.2582175590551179
20
-5.3997675984251972
11
4.2471871653543305
21
-5.4029453937007874
0
LINE
8
BLACK
6
CONTINUOUS
10
4.2471871653543305
20
-5.4029453937007874
11
4.2358703937007869
21
-5.4048681889763781
0
LINE
8
BLACK
6
CONTINUOUS
10
4.2358703937007869
20
-5.4048681889763781
11
4.2244094488188972
21
-5.4055118110236222
0
LINE
8
BLACK
6
CONTINUOUS
10
4.2244094488188972
20
-5.4055118110236222
11
3.7125984251968505
21
-5.4055118110236222
0
LINE
8
BLACK
6
CONTINUOUS
10
3.7125984251968505
20
-5.4055118110236222
11
3.7118303543307087
21
-5.4054361811023623
0
LINE
8
BLACK
6
CONTINUOUS
10
3.7118303543307087
20
-5.4054361811023623
11
3.7116891338582678
21
-5.4053776771653546
0
LINE
8
BLACK
6
CONTINUOUS
10
3.7116891338582678
20
-5.4053776771653546
11
3.7115794488188976
21
-5.4053776771653546
0
LINE
8
BLACK
6
CONTINUOUS
10
3.7115794488188976
20
-5.4053776771653546
11
3.6924106299212598
21
-5.4002413779527556
0
LINE
8
BLACK
6
CONTINUOUS
10
3.6924106299212598
20
-5.4002413779527556
11
3.6537378740157478
21
-5.3913130708661416
0
LINE
8
BLACK
6
CONTINUOUS
10
3.6537378740157478
20
-5.3913130708661416
11
3.6147770472440945
21
-5.3837398425196845
0
LINE
8
BLACK
6
CONTINUOUS
10
3.6147770472440945
20
-5.3837398425196845
11
3.5755756692913385
21
-5.3775309448818893
0
LINE
8
BLACK
6
CONTINUOUS
10
3.5755756692913385
20
-5.3775309448818893
11
3.5361814566929133
21
-5.3726939763779527
0
LINE
8
BLACK
6
CONTINUOUS
10
3.5361814566929133
20
-5.3726939763779527
11
3.4966424803149607
21
-5.3692347637795272
0
LINE
8
BLACK
6
CONTINUOUS
10
3.4966424803149607
20
-5.3692347637795272
11
3.4570068110236218
21
-5.3671575196850396
0
LINE
8
BLACK
6
CONTINUOUS
10
3.4570068110236218
20
-5.3671575196850396
11
3.417322834645669
21
-5.3664648425196848
0
LINE
8
BLACK
6
CONTINUOUS
10
3.417322834645669
20
-5.3664648425196848
11
3.3776388582677166
21
-5.3671575196850396
0
LINE
8
BLACK
6
CONTINUOUS
10
3.3776388582677166
20
-5.3671575196850396
11
3.3380031889763777
21
-5.3692347637795272
0
LINE
8
BLACK
6
CONTINUOUS
10
3.3380031889763777
20
-5.3692347637795272
11
3.2984642125984251
21
-5.3726939763779527
0
LINE
8
BLACK
6
CONTINUOUS
10
3.2984642125984251
20
-5.3726939763779527
11
3.2590699999999999
21
-5.3775309448818893
0
LINE
8
BLACK
6
CONTINUOUS
10
3.2590699999999999
20
-5.3775309448818893
11
3.2198686220472439
21
-5.3837398425196845
0
LINE
8
BLACK
6
CONTINUOUS
10
3.2198686220472439
20
-5.3837398425196845
11
3.1809077952755906
21
-5.3913130708661416
0
LINE
8
BLACK
6
CONTINUOUS
10
3.1809077952755906
20
-5.3913130708661416
11
3.1422350393700786
21
-5.4002413779527556
0
LINE
8
BLACK
6
CONTINUOUS
10
3.1422350393700786
20
-5.4002413779527556
11
3.1230662204724409
21
-5.4053776771653546
0
LINE
8
BLACK
6
CONTINUOUS
10
3.1230662204724409
20
-5.4053776771653546
11
3.1229565354330706
21
-5.4053776771653546
0
LINE
8
BLACK
6
CONTINUOUS
10
3.1229565354330706
20
-5.4053776771653546
11
3.1228153149606297
21
-5.4054361811023623
0
LINE
8
BLACK
6
CONTINUOUS
10
3.1228153149606297
20
-5.4054361811023623
11
3.122047244094488
21
-5.4055118110236222
0
LINE
8
BLACK
6
CONTINUOUS
10
3.122047244094488
20
-5.4055118110236222
11
1.6850393700787401
21
-5.4055118110236222
0
LINE
8
BLACK
6
CONTINUOUS
10
1.6850393700787401
20
-5.4055118110236222
11
1.6735784251968504
21
-5.4048681889763781
0
LINE
8
BLACK
6
CONTINUOUS
10
1.6735784251968504
20
-5.4048681889763781
11
1.662261653543307
21
-5.4029453937007874
0
LINE
8
BLACK
6
CONTINUOUS
10
1.662261653543307
20
-5.4029453937007874
11
1.6512312598425196
21
-5.3997675984251972
0
LINE
8
BLACK
6
CONTINUOUS
10
1.6512312598425196
20
-5.3997675984251972
11
1.6406260629921259
21
-5.3953747637795271
0
LINE
8
BLACK
6
CONTINUOUS
10
1.6406260629921259
20
-5.3953747637795271
11
1.6305794094488189
21
-5.3898221653543308
0
LINE
8
BLACK
6
CONTINUOUS
10
1.6305794094488189
20
-5.3898221653543308
11
1.6212175984251969
21
-5.3831796062992128
0
LINE
8
BLACK
6
CONTINUOUS
10
1.6212175984251969
20
-5.3831796062992128
11
1.6126583464566928
21
-5.3755306299212595
0
LINE
8
BLACK
6
CONTINUOUS
10
1.6126583464566928
20
-5.3755306299212595
11
1.6050093700787402
21
-5.3669713779527557
0
LINE
8
BLACK
6
CONTINUOUS
10
1.6050093700787402
20
-5.3669713779527557
11
1.598366811023622
21
-5.3576095669291339
0
LINE
8
BLACK
6
CONTINUOUS
10
1.598366811023622
20
-5.3576095669291339
11
1.5928142125984253
21
-5.3475629133858265
0
LINE
8
BLACK
6
CONTINUOUS
10
1.5928142125984253
20
-5.3475629133858265
11
1.5884213779527558
21
-5.3369577165354327
0
LINE
8
BLACK
6
CONTINUOUS
10
1.5884213779527558
20
-5.3369577165354327
11
1.5852435826771654
21
-5.3259273228346453
0
LINE
8
BLACK
6
CONTINUOUS
10
1.5852435826771654
20
-5.3259273228346453
11
1.5833207874015747
21
-5.3146105511811026
0
LINE
8
BLACK
6
CONTINUOUS
10
1.5833207874015747
20
-5.3146105511811026
11
1.5826771653543306
21
-5.3031496062992121
0
LINE
8
BLACK
6
CONTINUOUS
10
1.5826771653543306
20
-5.3031496062992121
11
1.5826771653543306
21
-1.8169291338582676
0
LINE
8
BLACK
6
CONTINUOUS
10
1.5826771653543306
20
-1.8169291338582676
11
1.5833207874015747
21
-1.805468188976378
0
LINE
8
BLACK
6
CONTINUOUS
10
1.5833207874015747
20
-1.805468188976378
11
1.5852435826771654
21
-1.7941514173228346
0
LINE
8
BLACK
6
CONTINUOUS
10
1.5852435826771654
20
-1.7941514173228346
11
1.5884213779527558
21
-1.7831210236220472
0
LINE
8
BLACK
6
CONTINUOUS
10
1.5884213779527558
20
-1.7831210236220472
11
1.5928142125984253
21
-1.7725158267716534
0
LINE
8
BLACK
6
CONTINUOUS
10
1.5928142125984253
20
-1.7725158267716534
11
1.598366811023622
21
-1.7624691732283464
0
LINE
8
BLACK
6
CONTINUOUS
10
1.598366811023622
20
-1.7624691732283464
11
1.6050093700787402
21
-1.7531073622047244
0
LINE
8
BLACK
6
CONTINUOUS
10
1.6050093700787402
20
-1.7531073622047244
11
1.6126583464566928
21
-1.7445481102362204
0
LINE
8
BLACK
6
CONTINUOUS
10
1.6126583464566928
20
-1.7445481102362204
11
1.6212175984251969
21
-1.7368991338582678
0
LINE
8
BLACK
6
CONTINUOUS
10
1.6212175984251969
20
-1.7368991338582678
11
1.6305794094488189
21
-1.7302565748031495
0
LINE
8
BLACK
6
CONTINUOUS
10
1.6305794094488189
20
-1.7302565748031495
11
1.6406260629921259
21
-1.7247039763779528
0
LINE
8
BLACK
6
CONTINUOUS
10
1.6406260629921259
20
-1.7247039763779528
11
1.6512312598425196
21
-1.7203111417322834
0
LINE
8
BLACK
6
CONTINUOUS
10
1.6512312598425196
20
-1.7203111417322834
11
1.662261653543307
21
-1.7171333464566929
0
LINE
8
BLACK
6
CONTINUOUS
10
1.662261653543307
20
-1.7171333464566929
11
1.6735784251968504
21
-1.7152105511811022
0
LINE
8
BLACK
6
CONTINUOUS
10
1.6735784251968504
20
-1.7152105511811022
11
1.6850393700787401
21
-1.7145669291338583
0
LINE
8
BLACK
6
CONTINUOUS
10
1.6850393700787401
20
-1.7145669291338583
11
4.2244094488188972
21
-1.7145669291338583
0
LINE
8
BLACK
6
CONTINUOUS
10
1.6850393700787401
20
-1.7224409448818898
11
1.6793238976377953
21
-1.7224409448818898
0
LINE
8
BLACK
6
CONTINUOUS
10
1.6793238976377953
20
-1.7224409448818898
11
1.6679762598425196
21
-1.723818779527559
0
LINE
8
BLACK
6
CONTINUOUS
10
1.6679762598425196
20
-1.723818779527559
11
1.6568774803149606
21
-1.7265544094488188
0
LINE
8
BLACK
6
CONTINUOUS
10
1.6568774803149606
20
-1.7265544094488188
11
1.6461893307086615
21
-1.730607874015748
0
LINE
8
BLACK
6
CONTINUOUS
10
1.6461893307086615
20
-1.730607874015748
11
1.6360677165354329
21
-1.7359201181102362
0
LINE
8
BLACK
6
CONTINUOUS
10
1.6360677165354329
20
-1.7359201181102362
11
1.6266601968503938
21
-1.7424136220472441
0
LINE
8
BLACK
6
CONTINUOUS
10
1.6266601968503938
20
-1.7424136220472441
11
1.6181040157480315
21
-1.7499937795275591
0
LINE
8
BLACK
6
CONTINUOUS
10
1.6181040157480315
20
-1.7499937795275591
11
1.6105238582677166
21
-1.7585499606299213
0
LINE
8
BLACK
6
CONTINUOUS
10
1.6105238582677166
20
-1.7585499606299213
11
1.6040303543307086
21
-1.7679574803149607
0
LINE
8
BLACK
6
CONTINUOUS
10
1.6040303543307086
20
-1.7679574803149607
11
1.5987181102362205
21
-1.778079094488189
0
LINE
8
BLACK
6
CONTINUOUS
10
1.5987181102362205
20
-1.778079094488189
11
1.5946646456692912
21
-1.7887672440944882
0
LINE
8
BLACK
6
CONTINUOUS
10
1.5946646456692912
20
-1.7887672440944882
11
1.5919290157480315
21
-1.7998660236220472
0
LINE
8
BLACK
6
CONTINUOUS
10
1.5919290157480315
20
-1.7998660236220472
11
1.5905511811023623
21
-1.8112136614173229
0
LINE
8
BLACK
6
CONTINUOUS
10
1.5905511811023623
20
-1.8112136614173229
11
1.5905511811023623
21
-1.8169291338582676
0
LINE
8
BLACK
6
CONTINUOUS
10
1.5905511811023623
20
-1.8169291338582676
11
1.5905511811023623
21
-5.3031496062992121
0
LINE
8
BLACK
6
CONTINUOUS
10
1.5905511811023623
20
-5.3031496062992121
11
1.5905511811023623
21
-5.3088650787401575
0
LINE
8
BLACK
6
CONTINUOUS
10
1.5905511811023623
20
-5.3088650787401575
11
1.5919290157480315
21
-5.3202127165354334
0
LINE
8
BLACK
6
CONTINUOUS
10
1.5919290157480315
20
-5.3202127165354334
11
1.5946646456692912
21
-5.3313114960629919
0
LINE
8
BLACK
6
CONTINUOUS
10
1.5946646456692912
20
-5.3313114960629919
11
1.5987181102362205
21
-5.3419996456692909
0
LINE
8
BLACK
6
CONTINUOUS
10
1.5987181102362205
20
-5.3419996456692909
11
1.6040303543307086
21
-5.3521212598425194
0
LINE
8
BLACK
6
CONTINUOUS
10
1.6040303543307086
20
-5.3521212598425194
11
1.6105238582677166
21
-5.3615287795275588
0
LINE
8
BLACK
6
CONTINUOUS
10
1.6105238582677166
20
-5.3615287795275588
11
1.6181040157480315
21
-5.3700849606299208
0
LINE
8
BLACK
6
CONTINUOUS
10
1.6181040157480315
20
-5.3700849606299208
11
1.6266601968503938
21
-5.3776651181102357
0
LINE
8
BLACK
6
CONTINUOUS
10
1.6266601968503938
20
-5.3776651181102357
11
1.6360677165354329
21
-5.3841586220472442
0
LINE
8
BLACK
6
CONTINUOUS
10
1.6360677165354329
20
-5.3841586220472442
11
1.6461893307086615
21
-5.3894708661417319
0
LINE
8
BLACK
6
CONTINUOUS
10
1.6461893307086615
20
-5.3894708661417319
11
1.6568774803149606
21
-5.3935243307086616
0
LINE
8
BLACK
6
CONTINUOUS
10
1.6568774803149606
20
-5.3935243307086616
11
1.6679762598425196
21
-5.3962599606299211
0
LINE
8
BLACK
6
CONTINUOUS
10
1.6679762598425196
20
-5.3962599606299211
11
1.6793238976377953
21
-5.3976377952755907
0
LINE
8
BLACK
6
CONTINUOUS
10
1.6793238976377953
20
-5.3976377952755907
11
1.6850393700787401
21
-5.3976377952755907
0
LINE
8
BLACK
6
CONTINUOUS
10
1.6850393700787401
20
-5.3976377952755907
11
3.1215662598425196
21
-5.3976377952755907
0
LINE
8
BLACK
6
CONTINUOUS
10
3.1215662598425196
20
-5.3976377952755907
11
3.1598001574803147
21
-5.3881050393700782
0
LINE
8
BLACK
6
CONTINUOUS
10
3.1598001574803147
20
-5.3881050393700782
11
3.1988857874015748
21
-5.3797971259842514
0
LINE
8
BLACK
6
CONTINUOUS
10
3.1988857874015748
20
-5.3797971259842514
11
3.238237559055118
21
-5.3728583464566926
0
LINE
8
BLACK
6
CONTINUOUS
10
3.238237559055118
20
-5.3728583464566926
11
3.2778075196850391
21
-5.3672971259842521
0
LINE
8
BLACK
6
CONTINUOUS
10
3.2778075196850391
20
-5.3672971259842521
11
3.3175474409448817
21
-5.3631203149606295
0
LINE
8
BLACK
6
CONTINUOUS
10
3.3175474409448817
20
-5.3631203149606295
11
3.3574089370078739
21
-5.3603329133858271
0
LINE
8
BLACK
6
CONTINUOUS
10
3.3574089370078739
20
-5.3603329133858271
11
3.3973434251968504
21
-5.3589383858267716
0
LINE
8
BLACK
6
CONTINUOUS
10
3.3973434251968504
20
-5.3589383858267716
11
3.437302244094488
21
-5.3589383858267716
0
LINE
8
BLACK
6
CONTINUOUS
10
3.437302244094488
20
-5.3589383858267716
11
3.4772367322834645
21
-5.3603329133858271
0
LINE
8
BLACK
6
CONTINUOUS
10
3.4772367322834645
20
-5.3603329133858271
11
3.5170982283464567
21
-5.3631203149606295
0
LINE
8
BLACK
6
CONTINUOUS
10
3.5170982283464567
20
-5.3631203149606295
11
3.5568381496062993
21
-5.3672971259842521
0
LINE
8
BLACK
6
CONTINUOUS
10
3.5568381496062993
20
-5.3672971259842521
11
3.5964081102362204
21
-5.3728583464566926
0
LINE
8
BLACK
6
CONTINUOUS
10
3.5964081102362204
20
-5.3728583464566926
11
3.6357598818897636
21
-5.3797971259842514
0
LINE
8
BLACK
6
CONTINUOUS
10
3.6357598818897636
20
-5.3797971259842514
11
3.6748455118110237
21
-5.3881050393700782
0
LINE
8
BLACK
6
CONTINUOUS
10
3.6748455118110237
20
-5.3881050393700782
11
3.7130794094488189
21
-5.3976377952755907
0
LINE
8
BLACK
6
CONTINUOUS
10
3.7130794094488189
20
-5.3976377952755907
11
4.2244094488188972
21
-5.3976377952755907
0
LINE
8
BLACK
6
CONTINUOUS
10
4.2244094488188972
20
-5.3976377952755907
11
4.2301249212598426
21
-5.3976377952755907
0
LINE
8
BLACK
6
CONTINUOUS
10
4.2301249212598426
20
-5.3976377952755907
11
4.2414725590551177
21
-5.3962599606299211
0
LINE
8
BLACK
6
CONTINUOUS
10
4.2414725590551177
20
-5.3962599606299211
11
4.2525713385826771
21
-5.3935243307086616
0
LINE
8
BLACK
6
CONTINUOUS
10
4.2525713385826771
20
-5.3935243307086616
11
4.263259488188976
21
-5.3894708661417319
0
LINE
8
BLACK
6
CONTINUOUS
10
4.263259488188976
20
-5.3894708661417319
11
4.2733811023622046
21
-5.3841586220472442
0
LINE
8
BLACK
6
CONTINUOUS
10
4.2733811023622046
20
-5.3841586220472442
11
4.282788622047244
21
-5.3776651181102357
0
LINE
8
BLACK
6
CONTINUOUS
10
4.282788622047244
20
-5.3776651181102357
11
4.291344803149606
21
-5.3700849606299208
0
LINE
8
BLACK
6
CONTINUOUS
10
4.291344803149606
20
-5.3700849606299208
11
4.2989249606299209
21
-5.3615287795275588
0
LINE
8
BLACK
6
CONTINUOUS
10
4.2989249606299209
20
-5.3615287795275588
11
4.3054184645669293
21
-5.3521212598425194
0
LINE
8
BLACK
6
CONTINUOUS
10
4.3054184645669293
20
-5.3521212598425194
11
4.3107307086614171
21
-5.3419996456692909
0
LINE
8
BLACK
6
CONTINUOUS
10
4.3107307086614171
20
-5.3419996456692909
11
4.3147841732283467
21
-5.3313114960629919
0
LINE
8
BLACK
6
CONTINUOUS
10
4.3147841732283467
20
-5.3313114960629919
11
4.3175198031496063
21
-5.3202127165354334
0
LINE
8
BLACK
6
CONTINUOUS
10
4.3175198031496063
20
-5.3202127165354334
11
4.3188976377952759
21
-5.3088650787401575
0
LINE
8
BLACK
6
CONTINUOUS
10
4.3188976377952759
20
-5.3088650787401575
11
4.3188976377952759
21
-5.3031496062992121
0
LINE
8
BLACK
6
CONTINUOUS
10
4.3188976377952759
20
-5.3031496062992121
11
4.3188976377952759
21
-1.8169291338582676
0
LINE
8
BLACK
6
CONTINUOUS
10
4.3188976377952759
20
-1.8169291338582676
11
4.3188976377952759
21
-1.8112136614173229
0
LINE
8
BLACK
6
CONTINUOUS
10
4.3188976377952759
20
-1.8112136614173229
11
4.3175198031496063
21
-1.7998660236220472
0
LINE
8
BLACK
6
CONTINUOUS
10
4.3175198031496063
20
-1.7998660236220472
11
4.3147841732283467
21
-1.7887672440944882
0
LINE
8
BLACK
6
CONTINUOUS
10
4.3147841732283467
20
-1.7887672440944882
11
4.3107307086614171
21
-1.778079094488189
0
LINE
8
BLACK
6
CONTINUOUS
10
4.3107307086614171
20
-1.778079094488189
11
4.3054184645669293
21
-1.7679574803149607
0
LINE
8
BLACK
6
CONTINUOUS
10
4.3054184645669293
20
-1.7679574803149607
11
4.2989249606299209
21
-1.7585499606299213
0
LINE
8
BLACK
6
CONTINUOUS
10
4.2989249606299209
20
-1.7585499606299213
11
4.291344803149606
21
-1.7499937795275591
0
LINE
8
BLACK
6
CONTINUOUS
10
4.291344803149606
20
-1.7499937795275591
11
4.282788622047244
21
-1.7424136220472441
0
LINE
8
BLACK
6
CONTINUOUS
10
4.282788622047244
20
-1.7424136220472441
11
4.2733811023622046
21
-1.7359201181102362
0
LINE
8
BLACK
6
CONTINUOUS
10
4.2733811023622046
20
-1.7359201181102362
11
4.263259488188976
21
-1.730607874015748
0
LINE
8
BLACK
6
CONTINUOUS
10
4.263259488188976
20
-1.730607874015748
11
4.2525713385826771
21
-1.7265544094488188
0
LINE
8
BLACK
6
CONTINUOUS
10
4.2525713385826771
20
-1.7265544094488188
11
4.2414725590551177
21
-1.723818779527559
0
LINE
8
BLACK
6
CONTINUOUS
10
4.2414725590551177
20
-1.723818779527559
11
4.2301249212598426
21
-1.7224409448818898
0
LINE
8
BLACK
6
CONTINUOUS
10
4.2301249212598426
20
-1.7224409448818898
11
4.2244094488188972
21
-1.7224409448818898
0
LINE
8
BLACK
6
CONTINUOUS
10
4.2244094488188972
20
-1.7224409448818898
11
1.6850393700787401
21
-1.7224409448818898
0
CIRCLE
8
BLACK
10
1.7125984251968505
20
-4.6456692913385824
40
0.0433070866141732
0
CIRCLE
8
BLACK
10
2.3662204724409448
20
-5.1696850393700791
40
0.0127952755905512
0
CIRCLE
8
BLACK
10
2.5937795275590552
20
-5.1696850393700791
40
0.0127952755905512
0
LINE
8
BLACK
6
CONTINUOUS
10
2.3216312204724407
20
-5.1720140944881887
11
2.3208332283464568
21
-5.1749923228346457
0
LINE
8
BLACK
6
CONTINUOUS
10
2.3208332283464568
20
-5.1749923228346457
11
2.3192915748031497
21
-5.1776625196850397
0
LINE
8
BLACK
6
CONTINUOUS
10
2.3192915748031497
20
-5.1776625196850397
11
2.3171113385826771
21
-5.1798427559055114
0
LINE
8
BLACK
6
CONTINUOUS
10
2.3171113385826771
20
-5.1798427559055114
11
2.3144411417322832
21
-5.1813844094488184
0
LINE
8
BLACK
6
CONTINUOUS
10
2.3144411417322832
20
-5.1813844094488184
11
2.3114629133858267
21
-5.1821824015748028
0
LINE
8
BLACK
6
CONTINUOUS
10
2.3114629133858267
20
-5.1821824015748028
11
2.3083796062992126
21
-5.1821824015748028
0
LINE
8
BLACK
6
CONTINUOUS
10
2.3083796062992126
20
-5.1821824015748028
11
2.305401377952756
21
-5.1813844094488184
0
LINE
8
BLACK
6
CONTINUOUS
10
2.305401377952756
20
-5.1813844094488184
11
2.3027311811023621
21
-5.1798427559055114
0
LINE
8
BLACK
6
CONTINUOUS
10
2.3027311811023621
20
-5.1798427559055114
11
2.3005509448818895
21
-5.1776625196850397
0
LINE
8
BLACK
6
CONTINUOUS
10
2.3005509448818895
20
-5.1776625196850397
11
2.2990092913385825
21
-5.1749923228346457
0
LINE
8
BLACK
6
CONTINUOUS
10
2.2990092913385825
20
-5.1749923228346457
11
2.2982112992125985
21
-5.1720140944881887
0
LINE
8
BLACK
6
CONTINUOUS
10
2.2982112992125985
20
-5.1720140944881887
11
2.2981102362204724
21
-5.1704724409448817
0
LINE
8
BLACK
6
CONTINUOUS
10
2.2981102362204724
20
-5.1704724409448817
11
2.2981102362204724
21
-5.1271653543307085
0
LINE
8
BLACK
6
CONTINUOUS
10
2.2981102362204724
20
-5.1271653543307085
11
2.2982112992125985
21
-5.1256237007874015
0
LINE
8
BLACK
6
CONTINUOUS
10
2.2982112992125985
20
-5.1256237007874015
11
2.2990092913385825
21
-5.1226454724409445
0
LINE
8
BLACK
6
CONTINUOUS
10
2.2990092913385825
20
-5.1226454724409445
11
2.3005509448818895
21
-5.1199752755905514
0
LINE
8
BLACK
6
CONTINUOUS
10
2.3005509448818895
20
-5.1199752755905514
11
2.3027311811023621
21
-5.1177950393700788
0
LINE
8
BLACK
6
CONTINUOUS
10
2.3027311811023621
20
-5.1177950393700788
11
2.305401377952756
21
-5.1162533858267718
0
LINE
8
BLACK
6
CONTINUOUS
10
2.305401377952756
20
-5.1162533858267718
11
2.3083796062992126
21
-5.1154553937007874
0
LINE
8
BLACK
6
CONTINUOUS
10
2.3083796062992126
20
-5.1154553937007874
11
2.3114629133858267
21
-5.1154553937007874
0
LINE
8
BLACK
6
CONTINUOUS
10
2.3114629133858267
20
-5.1154553937007874
11
2.3144411417322832
21
-5.1162533858267718
0
LINE
8
BLACK
6
CONTINUOUS
10
2.3144411417322832
20
-5.1162533858267718
11
2.3171113385826771
21
-5.1177950393700788
0
LINE
8
BLACK
6
CONTINUOUS
10
2.3171113385826771
20
-5.1177950393700788
11
2.3192915748031497
21
-5.1199752755905514
0
LINE
8
BLACK
6
CONTINUOUS
10
2.3192915748031497
20
-5.1199752755905514
11
2.3208332283464568
21
-5.1226454724409445
0
LINE
8
BLACK
6
CONTINUOUS
10
2.3208332283464568
20
-5.1226454724409445
11
2.3216312204724407
21
-5.1256237007874015
0
LINE
8
BLACK
6
CONTINUOUS
10
2.3216312204724407
20
-5.1256237007874015
11
2.3217322834645668
21
-5.1271653543307085
0
LINE
8
BLACK
6
CONTINUOUS
10
2.3217322834645668
20
-5.1271653543307085
11
2.3217322834645668
21
-5.1704724409448817
0
LINE
8
BLACK
6
CONTINUOUS
10
2.3217322834645668
20
-5.1704724409448817
11
2.3216312204724407
21
-5.1720140944881887
0
LINE
8
BLACK
6
CONTINUOUS
10
2.3216312204724407
20
-5.3267385039370074
11
2.3208332283464568
21
-5.3297167322834644
0
LINE
8
BLACK
6
CONTINUOUS
10
2.3208332283464568
20
-5.3297167322834644
11
2.3192915748031497
21
-5.3323869291338584
0
LINE
8
BLACK
6
CONTINUOUS
10
2.3192915748031497
20
-5.3323869291338584
11
2.3171113385826771
21
-5.334567165354331
0
LINE
8
BLACK
6
CONTINUOUS
10
2.3171113385826771
20
-5.334567165354331
11
2.3144411417322832
21
-5.336108818897638
0
LINE
8
BLACK
6
CONTINUOUS
10
2.3144411417322832
20
-5.336108818897638
11
2.3114629133858267
21
-5.3369068110236215
0
LINE
8
BLACK
6
CONTINUOUS
10
2.3114629133858267
20
-5.3369068110236215
11
2.3083796062992126
21
-5.3369068110236215
0
LINE
8
BLACK
6
CONTINUOUS
10
2.3083796062992126
20
-5.3369068110236215
11
2.305401377952756
21
-5.336108818897638
0
LINE
8
BLACK
6
CONTINUOUS
10
2.305401377952756
20
-5.336108818897638
11
2.3027311811023621
21
-5.334567165354331
0
LINE
8
BLACK
6
CONTINUOUS
10
2.3027311811023621
20
-5.334567165354331
11
2.3005509448818895
21
-5.3323869291338584
0
LINE
8
BLACK
6
CONTINUOUS
10
2.3005509448818895
20
-5.3323869291338584
11
2.2990092913385825
21
-5.3297167322834644
0
LINE
8
BLACK
6
CONTINUOUS
10
2.2990092913385825
20
-5.3297167322834644
11
2.2982112992125985
21
-5.3267385039370074
0
LINE
8
BLACK
6
CONTINUOUS
10
2.2982112992125985
20
-5.3267385039370074
11
2.2981102362204724
21
-5.3251968503937004
0
LINE
8
BLACK
6
CONTINUOUS
10
2.2981102362204724
20
-5.3251968503937004
11
2.2981102362204724
21
-5.3015748031496059
0
LINE
8
BLACK
6
CONTINUOUS
10
2.2981102362204724
20
-5.3015748031496059
11
2.2982112992125985
21
-5.3000331496062989
0
LINE
8
BLACK
6
CONTINUOUS
10
2.2982112992125985
20
-5.3000331496062989
11
2.2990092913385825
21
-5.2970549212598428
0
LINE
8
BLACK
6
CONTINUOUS
10
2.2990092913385825
20
-5.2970549212598428
11
2.3005509448818895
21
-5.2943847244094489
0
LINE
8
BLACK
6
CONTINUOUS
10
2.3005509448818895
20
-5.2943847244094489
11
2.3027311811023621
21
-5.2922044881889763
0
LINE
8
BLACK
6
CONTINUOUS
10
2.3027311811023621
20
-5.2922044881889763
11
2.305401377952756
21
-5.2906628346456692
0
LINE
8
BLACK
6
CONTINUOUS
10
2.305401377952756
20
-5.2906628346456692
11
2.3083796062992126
21
-5.2898648425196848
0
LINE
8
BLACK
6
CONTINUOUS
10
2.3083796062992126
20
-5.2898648425196848
11
2.3114629133858267
21
-5.2898648425196848
0
LINE
8
BLACK
6
CONTINUOUS
10
2.3114629133858267
20
-5.2898648425196848
11
2.3144411417322832
21
-5.2906628346456692
0
LINE
8
BLACK
6
CONTINUOUS
10
2.3144411417322832
20
-5.2906628346456692
11
2.3171113385826771
21
-5.2922044881889763
0
LINE
8
BLACK
6
CONTINUOUS
10
2.3171113385826771
20
-5.2922044881889763
11
2.3192915748031497
21
-5.2943847244094489
0
LINE
8
BLACK
6
CONTINUOUS
10
2.3192915748031497
20
-5.2943847244094489
11
2.3208332283464568
21
-5.2970549212598428
0
LINE
8
BLACK
6
CONTINUOUS
10
2.3208332283464568
20
-5.2970549212598428
11
2.3216312204724407
21
-5.3000331496062989
0
LINE
8
BLACK
6
CONTINUOUS
10
2.3216312204724407
20
-5.3000331496062989
11
2.3217322834645668
21
-5.3015748031496059
0
LINE
8
BLACK
6
CONTINUOUS
10
2.3217322834645668
20
-5.3015748031496059
11
2.3217322834645668
21
-5.3251968503937004
0
LINE
8
BLACK
6
CONTINUOUS
10
2.3217322834645668
20
-5.3251968503937004
11
2.3216312204724407
21
-5.3267385039370074
0
LINE
8
BLACK
6
CONTINUOUS
10
2.6617887007874015
20
-5.1720140944881887
11
2.6609907086614171
21
-5.1749923228346457
0
LINE
8
BLACK
6
CONTINUOUS
10
2.6609907086614171
20
-5.1749923228346457
11
2.65944905511811
21
-5.1776625196850397
0
LINE
8
BLACK
6
CONTINUOUS
10
2.65944905511811
20
-5.1776625196850397
11
2.6572688188976379
21
-5.1798427559055114
0
LINE
8
BLACK
6
CONTINUOUS
10
2.6572688188976379
20
-5.1798427559055114
11
2.6545986220472439
21
-5.1813844094488184
0
LINE
8
BLACK
6
CONTINUOUS
10
2.6545986220472439
20
-5.1813844094488184
11
2.6516203937007874
21
-5.1821824015748028
0
LINE
8
BLACK
6
CONTINUOUS
10
2.6516203937007874
20
-5.1821824015748028
11
2.6485370866141733
21
-5.1821824015748028
0
LINE
8
BLACK
6
CONTINUOUS
10
2.6485370866141733
20
-5.1821824015748028
11
2.6455588582677163
21
-5.1813844094488184
0
LINE
8
BLACK
6
CONTINUOUS
10
2.6455588582677163
20
-5.1813844094488184
11
2.6428886614173228
21
-5.1798427559055114
0
LINE
8
BLACK
6
CONTINUOUS
10
2.6428886614173228
20
-5.1798427559055114
11
2.6407084251968502
21
-5.1776625196850397
0
LINE
8
BLACK
6
CONTINUOUS
10
2.6407084251968502
20
-5.1776625196850397
11
2.6391667716535432
21
-5.1749923228346457
0
LINE
8
BLACK
6
CONTINUOUS
10
2.6391667716535432
20
-5.1749923228346457
11
2.6383687795275592
21
-5.1720140944881887
0
LINE
8
BLACK
6
CONTINUOUS
10
2.6383687795275592
20
-5.1720140944881887
11
2.6382677165354331
21
-5.1704724409448817
0
LINE
8
BLACK
6
CONTINUOUS
10
2.6382677165354331
20
-5.1704724409448817
11
2.6382677165354331
21
-5.1271653543307085
0
LINE
8
BLACK
6
CONTINUOUS
10
2.6382677165354331
20
-5.1271653543307085
11
2.6383687795275592
21
-5.1256237007874015
0
LINE
8
BLACK
6
CONTINUOUS
10
2.6383687795275592
20
-5.1256237007874015
11
2.6391667716535432
21
-5.1226454724409445
0
LINE
8
BLACK
6
CONTINUOUS
10
2.6391667716535432
20
-5.1226454724409445
11
2.6407084251968502
21
-5.1199752755905514
0
LINE
8
BLACK
6
CONTINUOUS
10
2.6407084251968502
20
-5.1199752755905514
11
2.6428886614173228
21
-5.1177950393700788
0
LINE
8
BLACK
6
CONTINUOUS
10
2.6428886614173228
20
-5.1177950393700788
11
2.6455588582677163
21
-5.1162533858267718
0
LINE
8
BLACK
6
CONTINUOUS
10
2.6455588582677163
20
-5.1162533858267718
11
2.6485370866141733
21
-5.1154553937007874
0
LINE
8
BLACK
6
CONTINUOUS
10
2.6485370866141733
20
-5.1154553937007874
11
2.6516203937007874
21
-5.1154553937007874
0
LINE
8
BLACK
6
CONTINUOUS
10
2.6516203937007874
20
-5.1154553937007874
11
2.6545986220472439
21
-5.1162533858267718
0
LINE
8
BLACK
6
CONTINUOUS
10
2.6545986220472439
20
-5.1162533858267718
11
2.6572688188976379
21
-5.1177950393700788
0
LINE
8
BLACK
6
CONTINUOUS
10
2.6572688188976379
20
-5.1177950393700788
11
2.65944905511811
21
-5.1199752755905514
0
LINE
8
BLACK
6
CONTINUOUS
10
2.65944905511811
20
-5.1199752755905514
11
2.6609907086614171
21
-5.1226454724409445
0
LINE
8
BLACK
6
CONTINUOUS
10
2.6609907086614171
20
-5.1226454724409445
11
2.6617887007874015
21
-5.1256237007874015
0
LINE
8
BLACK
6
CONTINUOUS
10
2.6617887007874015
20
-5.1256237007874015
11
2.6618897637795276
21
-5.1271653543307085
0
LINE
8
BLACK
6
CONTINUOUS
10
2.6618897637795276
20
-5.1271653543307085
11
2.6618897637795276
21
-5.1704724409448817
0
LINE
8
BLACK
6
CONTINUOUS
10
2.6618897637795276
20
-5.1704724409448817
11
2.6617887007874015
21
-5.1720140944881887
0
LINE
8
BLACK
6
CONTINUOUS
10
2.6617887007874015
20
-5.3267385039370074
11
2.6609907086614171
21
-5.3297167322834644
0
LINE
8
BLACK
6
CONTINUOUS
10
2.6609907086614171
20
-5.3297167322834644
11
2.65944905511811
21
-5.3323869291338584
0
LINE
8
BLACK
6
CONTINUOUS
10
2.65944905511811
20
-5.3323869291338584
11
2.6572688188976379
21
-5.334567165354331
0
LINE
8
BLACK
6
CONTINUOUS
10
2.6572688188976379
20
-5.334567165354331
11
2.6545986220472439
21
-5.336108818897638
0
LINE
8
BLACK
6
CONTINUOUS
10
2.6545986220472439
20
-5.336108818897638
11
2.6516203937007874
21
-5.3369068110236215
0
LINE
8
BLACK
6
CONTINUOUS
10
2.6516203937007874
20
-5.3369068110236215
11
2.6485370866141733
21
-5.3369068110236215
0
LINE
8
BLACK
6
CONTINUOUS
10
2.6485370866141733
20
-5.3369068110236215
11
2.6455588582677163
21
-5.336108818897638
0
LINE
8
BLACK
6
CONTINUOUS
10
2.6455588582677163
20
-5.336108818897638
11
2.6428886614173228
21
-5.334567165354331
0
LINE
8
BLACK
6
CONTINUOUS
10
2.6428886614173228
20
-5.334567165354331
11
2.6407084251968502
21
-5.3323869291338584
0
LINE
8
BLACK
6
CONTINUOUS
10
2.6407084251968502
20
-5.3323869291338584
11
2.6391667716535432
21
-5.3297167322834644
0
LINE
8
BLACK
6
CONTINUOUS
10
2.6391667716535432
20
-5.3297167322834644
11
2.6383687795275592
21
-5.3267385039370074
0
LINE
8
BLACK
6
CONTINUOUS
10
2.6383687795275592
20
-5.3267385039370074
11
2.6382677165354331
21
-5.3251968503937004
0
LINE
8
BLACK
6
CONTINUOUS
10
2.6382677165354331
20
-5.3251968503937004
11
2.6382677165354331
21
-5.3015748031496059
0
LINE
8
BLACK
6
CONTINUOUS
10
2.6382677165354331
20
-5.3015748031496059
11
2.6383687795275592
21
-5.3000331496062989
0
LINE
8
BLACK
6
CONTINUOUS
10
2.6383687795275592
20
-5.3000331496062989
11
2.6391667716535432
21
-5.2970549212598428
0
LINE
8
BLACK
6
CONTINUOUS
10
2.6391667716535432
20
-5.2970549212598428
11
2.6407084251968502
21
-5.2943847244094489
0
LINE
8
BLACK
6
CONTINUOUS
10
2.6407084251968502
20
-5.2943847244094489
11
2.6428886614173228
21
-5.2922044881889763
0
LINE
8
BLACK
6
CONTINUOUS
10
2.6428886614173228
20
-5.2922044881889763
11
2.6455588582677163
21
-5.2906628346456692
0
LINE
8
BLACK
6
CONTINUOUS
10
2.6455588582677163
20
-5.2906628346456692
11
2.6485370866141733
21
-5.2898648425196848
0
LINE
8
BLACK
6
CONTINUOUS
10
2.6485370866141733
20
-5.2898648425196848
11
2.6516203937007874
21
-5.2898648425196848
0
LINE
8
BLACK
6
CONTINUOUS
10
2.6516203937007874
20
-5.2898648425196848
11
2.6545986220472439
21
-5.2906628346456692
0
LINE
8
BLACK
6
CONTINUOUS
10
2.6545986220472439
20
-5.2906628346456692
11
2.6572688188976379
21
-5.2922044881889763
0
LINE
8
BLACK
6
CONTINUOUS
10
2.6572688188976379
20
-5.2922044881889763
11
2.65944905511811
21
-5.2943847244094489
0
LINE
8
BLACK
6
CONTINUOUS
10
2.65944905511811
20
-5.2943847244094489
11
2.6609907086614171
21
-5.2970549212598428
0
LINE
8
BLACK
6
CONTINUOUS
10
2.6609907086614171
20
-5.2970549212598428
11
2.6617887007874015
21
-5.3000331496062989
0
LINE
8
BLACK
6
CONTINUOUS
10
2.6617887007874015
20
-5.3000331496062989
11
2.6618897637795276
21
-5.3015748031496059
0
LINE
8
BLACK
6
CONTINUOUS
10
2.6618897637795276
20
-5.3015748031496059
11
2.6618897637795276
21
-5.3251968503937004
0
LINE
8
BLACK
6
CONTINUOUS
10
2.6618897637795276
20
-5.3251968503937004
11
2.6617887007874015
21
-5.3267385039370074
0
CIRCLE
8
BLACK
10
4.1696850393700791
20
-4.4055118110236222
40
0.0492125984251968
0
CIRCLE
8
BLACK
10
2.5658661417322834
20
-4.1056692913385824
40
0.0068897637795276
0
CIRCLE
8
BLACK
10
2.5658661417322834
20
-4.159803149606299
40
0.0068897637795276
0
CIRCLE
8
BLACK
10
2.5658661417322834
20
-4.2139370078740157
40
0.0068897637795276
0
CIRCLE
8
BLACK
10
2.6200000000000001
20
-4.1056692913385824
40
0.0068897637795276
0
CIRCLE
8
BLACK
10
2.6200000000000001
20
-4.159803149606299
40
0.0068897637795276
0
CIRCLE
8
BLACK
10
2.6200000000000001
20
-4.2139370078740157
40
0.0068897637795276
0
CIRCLE
8
BLACK
10
2.6741338582677163
20
-4.1056692913385824
40
0.0068897637795276
0
CIRCLE
8
BLACK
10
2.6741338582677163
20
-4.159803149606299
40
0.0068897637795276
0
CIRCLE
8
BLACK
10
2.6741338582677163
20
-4.2139370078740157
40
0.0068897637795276
0
CIRCLE
8
BLACK
10
1.7566141732283465
20
-2.2525196850393701
40
0.0196850393700787
0
CIRCLE
8
BLACK
10
1.7566141732283465
20
-2.15251968503937
40
0.0196850393700787
0
CIRCLE
8
BLACK
10
1.8566141732283463
20
-2.2525196850393701
40
0.0196850393700787
0
CIRCLE
8
BLACK
10
1.8566141732283463
20
-2.15251968503937
40
0.0196850393700787
0
CIRCLE
8
BLACK
10
1.9566141732283464
20
-2.2525196850393701
40
0.0196850393700787
0
CIRCLE
8
BLACK
10
1.9566141732283464
20
-2.15251968503937
40
0.0196850393700787
0
CIRCLE
8
BLACK
10
2.0566141732283465
20
-2.2525196850393701
40
0.0196850393700787
0
CIRCLE
8
BLACK
10
2.0566141732283465
20
-2.15251968503937
40
0.0196850393700787
0
CIRCLE
8
BLACK
10
2.1566141732283466
20
-2.2525196850393701
40
0.0196850393700787
0
CIRCLE
8
BLACK
10
2.1566141732283466
20
-2.15251968503937
40
0.0196850393700787
0
CIRCLE
8
BLACK
10
2.2566141732283462
20
-2.2525196850393701
40
0.0196850393700787
0
CIRCLE
8
BLACK
10
2.2566141732283462
20
-2.15251968503937
40
0.0196850393700787
0
CIRCLE
8
BLACK
10
2.3566141732283463
20
-2.2525196850393701
40
0.0196850393700787
0
CIRCLE
8
BLACK
10
2.3566141732283463
20
-2.15251968503937
40
0.0196850393700787
0
CIRCLE
8
BLACK
10
2.4566141732283464
20
-2.2525196850393701
40
0.0196850393700787
0
CIRCLE
8
BLACK
10
2.4566141732283464
20
-2.15251968503937
40
0.0196850393700787
0
CIRCLE
8
BLACK
10
2.5566141732283465
20
-2.2525196850393701
40
0.0196850393700787
0
CIRCLE
8
BLACK
10
2.5566141732283465
20
-2.15251968503937
40
0.0196850393700787
0
CIRCLE
8
BLACK
10
2.6566141732283466
20
-2.2525196850393701
40
0.0196850393700787
0
CIRCLE
8
BLACK
10
2.6566141732283466
20
-2.15251968503937
40
0.0196850393700787
0
CIRCLE
8
BLACK
10
2.7566141732283462
20
-2.2525196850393701
40
0.0196850393700787
0
CIRCLE
8
BLACK
10
2.7566141732283462
20
-2.15251968503937
40
0.0196850393700787
0
CIRCLE
8
BLACK
10
2.8566141732283463
20
-2.2525196850393701
40
0.0196850393700787
0
CIRCLE
8
BLACK
10
2.8566141732283463
20
-2.15251968503937
40
0.0196850393700787
0
CIRCLE
8
BLACK
10
2.9566141732283464
20
-2.2525196850393701
40
0.0196850393700787
0
CIRCLE
8
BLACK
10
2.9566141732283464
20
-2.15251968503937
40
0.0196850393700787
0
CIRCLE
8
BLACK
10
3.0566141732283465
20
-2.2525196850393701
40
0.0196850393700787
0
CIRCLE
8
BLACK
10
3.0566141732283465
20
-2.15251968503937
40
0.0196850393700787
0
CIRCLE
8
BLACK
10
3.1566141732283466
20
-2.2525196850393701
40
0.0196850393700787
0
CIRCLE
8
BLACK
10
3.1566141732283466
20
-2.15251968503937
40
0.0196850393700787
0
CIRCLE
8
BLACK
10
3.2566141732283462
20
-2.2525196850393701
40
0.0196850393700787
0
CIRCLE
8
BLACK
10
3.2566141732283462
20
-2.15251968503937
40
0.0196850393700787
0
CIRCLE
8
BLACK
10
3.3566141732283463
20
-2.2525196850393701
40
0.0196850393700787
0
CIRCLE
8
BLACK
10
3.3566141732283463
20
-2.15251968503937
40
0.0196850393700787
0
CIRCLE
8
BLACK
10
3.4566141732283464
20
-2.2525196850393701
40
0.0196850393700787
0
CIRCLE
8
BLACK
10
3.4566141732283464
20
-2.15251968503937
40
0.0196850393700787
0
CIRCLE
8
BLACK
10
3.5566141732283465
20
-2.2525196850393701
40
0.0196850393700787
0
CIRCLE
8
BLACK
10
3.5566141732283465
20
-2.15251968503937
40
0.0196850393700787
0
CIRCLE
8
BLACK
10
3.6566141732283466
20
-2.2525196850393701
40
0.0196850393700787
0
CIRCLE
8
BLACK
10
3.6566141732283466
20
-2.15251968503937
40
0.0196850393700787
0
CIRCLE
8
BLACK
10
3.7566141732283462
20
-2.2525196850393701
40
0.0196850393700787
0
CIRCLE
8
BLACK
10
3.7566141732283462
20
-2.15251968503937
40
0.0196850393700787
0
CIRCLE
8
BLACK
10
3.8566141732283463
20
-2.2525196850393701
40
0.0196850393700787
0
CIRCLE
8
BLACK
10
3.8566141732283463
20
-2.15251968503937
40
0.0196850393700787
0
CIRCLE
8
BLACK
10
3.9566141732283464
20
-2.2525196850393701
40
0.0196850393700787
0
CIRCLE
8
BLACK
10
3.9566141732283464
20
-2.15251968503937
40
0.0196850393700787
0
CIRCLE
8
BLACK
10
4.0566141732283461
20
-2.2525196850393701
40
0.0196850393700787
0
CIRCLE
8
BLACK
10
4.0566141732283461
20
-2.15251968503937
40
0.0196850393700787
0
CIRCLE
8
BLACK
10
4.1566141732283466
20
-2.2525196850393701
40
0.0196850393700787
0
CIRCLE
8
BLACK
10
4.1566141732283466
20
-2.15251968503937
40
0.0196850393700787
0
CIRCLE
8
BLACK
10
1.7549999999999999
20
-3.5499999999999998
40
0.0196850393700787
0
CIRCLE
8
BLACK
10
1.7549999999999999
20
-3.4499999999999997
40
0.0196850393700787
0
CIRCLE
8
BLACK
10
1.7549999999999999
20
-3.3500000000000001
40
0.0196850393700787
0
CIRCLE
8
BLACK
10
1.7549999999999999
20
-3.25
40
0.0196850393700787
0
CIRCLE
8
BLACK
10
1.7125984251968505
20
-2.5590551181102361
40
0.0433070866141732
0
CIRCLE
8
BLACK
10
1.72
20
-5.1001968503937007
40
0.0196850393700787
0
CIRCLE
8
BLACK
10
1.72
20
-5.0001968503937011
40
0.0196850393700787
0
CIRCLE
8
BLACK
10
3.1499999999999999
20
-4.4900000000000002
40
0.0196850393700787
0
CIRCLE
8
BLACK
10
3.0499999999999998
20
-4.4900000000000002
40
0.0196850393700787
0
CIRCLE
8
BLACK
10
2.9499999999999997
20
-4.4900000000000002
40
0.0196850393700787
0
CIRCLE
8
BLACK
10
2.8500000000000001
20
-4.4900000000000002
40
0.0196850393700787
0
CIRCLE
8
BLACK
10
1.7397637795275591
20
-2.9055118110236218
40
0.0492125984251968
0
CIRCLE
8
BLACK
10
3.2338582677165353
20
-5.2003937007874015
40
0.0196850393700787
0
CIRCLE
8
BLACK
10
3.548818897637795
20
-5.2003937007874015
40
0.0196850393700787
0
CIRCLE
8
BLACK
10
3.7701574803149605
20
-3.6055118110236219
40
0.0196850393700787
0
CIRCLE
8
BLACK
10
3.8701574803149605
20
-3.6055118110236219
40
0.0196850393700787
0
CIRCLE
8
BLACK
10
1.7397637795275591
20
-4.4055118110236222
40
0.0492125984251968
0
CIRCLE
8
BLACK
10
4.1929133858267713
20
-4.6456692913385824
40
0.0433070866141732
0
CIRCLE
8
BLACK
10
4.1696850393700791
20
-2.9055118110236218
40
0.0492125984251968
0
CIRCLE
8
BLACK
10
4.1929133858267713
20
-2.5590551181102361
40
0.0433070866141732
  0
ENDSEC
  0
EOF
